<mxfile host="app.diagrams.net" agent="Mozilla/5.0 (Windows NT 10.0; Win64; x64; rv:134.0) Gecko/20100101 Firefox/134.0" version="26.0.11">
  <diagram id="C5RBs43oDa-KdzZeNtuy" name="Page-1">
    <mxGraphModel dx="1881" dy="1312" grid="1" gridSize="10" guides="1" tooltips="1" connect="1" arrows="1" fold="1" page="1" pageScale="1" pageWidth="827" pageHeight="1169" background="#ffffff" math="0" shadow="0">
      <root>
        <mxCell id="WIyWlLk6GJQsqaUBKTNV-0" />
        <mxCell id="WIyWlLk6GJQsqaUBKTNV-1" parent="WIyWlLk6GJQsqaUBKTNV-0" />
        <mxCell id="6L3-nmI1P39nmVWJ7QpO-8" value="Course" style="swimlane;fontStyle=1;align=center;verticalAlign=top;childLayout=stackLayout;horizontal=1;startSize=26;horizontalStack=0;resizeParent=1;resizeParentMax=0;resizeLast=0;collapsible=1;marginBottom=0;whiteSpace=wrap;html=1;fillColor=#B1F4F6;strokeColor=light-dark(#0d686a, #003435);" parent="WIyWlLk6GJQsqaUBKTNV-1" vertex="1">
          <mxGeometry x="320" y="550" width="290" height="230" as="geometry" />
        </mxCell>
        <mxCell id="6L3-nmI1P39nmVWJ7QpO-9" value="&lt;div&gt;- id : UUID &lt;br&gt;&lt;/div&gt;&lt;div&gt;- platform_id : UUID ( FK -&amp;gt; Platform )&lt;/div&gt;&lt;div&gt;- title : str&lt;/div&gt;&lt;div&gt;- description : str&lt;/div&gt;&lt;div&gt;- price: int&lt;/div&gt;&lt;div&gt;- url: str&lt;/div&gt;&lt;div&gt;- rating: float ( 0 &amp;lt;= rating &amp;lt;= 5 )&lt;/div&gt;&lt;div&gt;- category: str&lt;/div&gt;&lt;div&gt;- views : int&lt;/div&gt;&lt;div&gt;-&amp;nbsp; refered_code : str&lt;/div&gt;&lt;div&gt;&lt;br&gt;&lt;/div&gt;" style="text;strokeColor=none;fillColor=none;align=left;verticalAlign=top;spacingLeft=4;spacingRight=4;overflow=hidden;rotatable=0;points=[[0,0.5],[1,0.5]];portConstraint=eastwest;whiteSpace=wrap;html=1;" parent="6L3-nmI1P39nmVWJ7QpO-8" vertex="1">
          <mxGeometry y="26" width="290" height="154" as="geometry" />
        </mxCell>
        <mxCell id="6L3-nmI1P39nmVWJ7QpO-10" value="" style="line;strokeWidth=1;fillColor=none;align=left;verticalAlign=middle;spacingTop=-1;spacingLeft=3;spacingRight=3;rotatable=0;labelPosition=right;points=[];portConstraint=eastwest;strokeColor=inherit;" parent="6L3-nmI1P39nmVWJ7QpO-8" vertex="1">
          <mxGeometry y="180" width="290" height="8" as="geometry" />
        </mxCell>
        <mxCell id="6L3-nmI1P39nmVWJ7QpO-11" value="&lt;div&gt;+ get_info() : str&lt;/div&gt;&lt;div&gt;+ apply_discount(discount:Discount) : void&lt;/div&gt;&lt;div&gt;&lt;br&gt;&lt;/div&gt;" style="text;strokeColor=none;fillColor=none;align=left;verticalAlign=top;spacingLeft=4;spacingRight=4;overflow=hidden;rotatable=0;points=[[0,0.5],[1,0.5]];portConstraint=eastwest;whiteSpace=wrap;html=1;" parent="6L3-nmI1P39nmVWJ7QpO-8" vertex="1">
          <mxGeometry y="188" width="290" height="42" as="geometry" />
        </mxCell>
        <mxCell id="6L3-nmI1P39nmVWJ7QpO-13" value="View" style="swimlane;fontStyle=1;align=center;verticalAlign=top;childLayout=stackLayout;horizontal=1;startSize=26;horizontalStack=0;resizeParent=1;resizeParentMax=0;resizeLast=0;collapsible=1;marginBottom=0;whiteSpace=wrap;html=1;fillColor=#B1F4F6;strokeColor=light-dark(#0d686a, #003435);" parent="WIyWlLk6GJQsqaUBKTNV-1" vertex="1">
          <mxGeometry x="320" y="860" width="290" height="150" as="geometry" />
        </mxCell>
        <mxCell id="6L3-nmI1P39nmVWJ7QpO-14" value="&lt;div&gt;- id : UUID &lt;br&gt;&lt;/div&gt;&lt;div&gt;- user_id : UUID ( FK -&amp;gt; User )&lt;/div&gt;&lt;div&gt;- course_id : UUID ( FK -&amp;gt; Course )&lt;br&gt;&lt;/div&gt;&lt;div&gt;- date : Date&lt;br&gt;&lt;/div&gt;&lt;div&gt;- minute_duration: int &lt;br&gt;&lt;/div&gt;&lt;br&gt;&lt;div&gt;&lt;br&gt;&lt;/div&gt;" style="text;strokeColor=none;fillColor=none;align=left;verticalAlign=top;spacingLeft=4;spacingRight=4;overflow=hidden;rotatable=0;points=[[0,0.5],[1,0.5]];portConstraint=eastwest;whiteSpace=wrap;html=1;" parent="6L3-nmI1P39nmVWJ7QpO-13" vertex="1">
          <mxGeometry y="26" width="290" height="84" as="geometry" />
        </mxCell>
        <mxCell id="6L3-nmI1P39nmVWJ7QpO-15" value="" style="line;strokeWidth=1;fillColor=none;align=left;verticalAlign=middle;spacingTop=-1;spacingLeft=3;spacingRight=3;rotatable=0;labelPosition=right;points=[];portConstraint=eastwest;strokeColor=inherit;" parent="6L3-nmI1P39nmVWJ7QpO-13" vertex="1">
          <mxGeometry y="110" width="290" height="8" as="geometry" />
        </mxCell>
        <mxCell id="6L3-nmI1P39nmVWJ7QpO-16" value="+ register () : void" style="text;strokeColor=none;fillColor=none;align=left;verticalAlign=top;spacingLeft=4;spacingRight=4;overflow=hidden;rotatable=0;points=[[0,0.5],[1,0.5]];portConstraint=eastwest;whiteSpace=wrap;html=1;" parent="6L3-nmI1P39nmVWJ7QpO-13" vertex="1">
          <mxGeometry y="118" width="290" height="32" as="geometry" />
        </mxCell>
        <mxCell id="6L3-nmI1P39nmVWJ7QpO-17" value="User" style="swimlane;fontStyle=1;align=center;verticalAlign=top;childLayout=stackLayout;horizontal=1;startSize=26;horizontalStack=0;resizeParent=1;resizeParentMax=0;resizeLast=0;collapsible=1;marginBottom=0;whiteSpace=wrap;html=1;fillColor=#B1F4F6;strokeColor=light-dark(#0d686a, #003435);" parent="WIyWlLk6GJQsqaUBKTNV-1" vertex="1">
          <mxGeometry x="670" y="860" width="290" height="190" as="geometry" />
        </mxCell>
        <mxCell id="6L3-nmI1P39nmVWJ7QpO-18" value="&lt;div&gt;- id : UUID &lt;br&gt;&lt;/div&gt;&lt;div&gt;- name : str&lt;br&gt;&lt;/div&gt;&lt;div&gt;- email : str &lt;br&gt;&lt;/div&gt;&lt;div&gt;- password : str&lt;br&gt;&lt;/div&gt;&lt;div&gt;- registry_date : Date&lt;br&gt;&lt;/div&gt;&lt;br&gt;&lt;div&gt;&lt;br&gt;&lt;/div&gt;" style="text;strokeColor=none;fillColor=none;align=left;verticalAlign=top;spacingLeft=4;spacingRight=4;overflow=hidden;rotatable=0;points=[[0,0.5],[1,0.5]];portConstraint=eastwest;whiteSpace=wrap;html=1;" parent="6L3-nmI1P39nmVWJ7QpO-17" vertex="1">
          <mxGeometry y="26" width="290" height="84" as="geometry" />
        </mxCell>
        <mxCell id="6L3-nmI1P39nmVWJ7QpO-19" value="" style="line;strokeWidth=1;fillColor=none;align=left;verticalAlign=middle;spacingTop=-1;spacingLeft=3;spacingRight=3;rotatable=0;labelPosition=right;points=[];portConstraint=eastwest;strokeColor=inherit;" parent="6L3-nmI1P39nmVWJ7QpO-17" vertex="1">
          <mxGeometry y="110" width="290" height="8" as="geometry" />
        </mxCell>
        <mxCell id="6L3-nmI1P39nmVWJ7QpO-20" value="&lt;div&gt;+ register () : void&lt;/div&gt;&lt;div&gt;+ log_in() : void&lt;/div&gt;&lt;div&gt;+ get_course( course: Course ) : Course&lt;br&gt;&lt;/div&gt;&lt;div&gt;+ add_favorite( course: Course ) : void&lt;br&gt;&lt;/div&gt;" style="text;strokeColor=none;fillColor=none;align=left;verticalAlign=top;spacingLeft=4;spacingRight=4;overflow=hidden;rotatable=0;points=[[0,0.5],[1,0.5]];portConstraint=eastwest;whiteSpace=wrap;html=1;" parent="6L3-nmI1P39nmVWJ7QpO-17" vertex="1">
          <mxGeometry y="118" width="290" height="72" as="geometry" />
        </mxCell>
        <mxCell id="6L3-nmI1P39nmVWJ7QpO-21" value="Platform" style="swimlane;fontStyle=1;align=center;verticalAlign=top;childLayout=stackLayout;horizontal=1;startSize=26;horizontalStack=0;resizeParent=1;resizeParentMax=0;resizeLast=0;collapsible=1;marginBottom=0;whiteSpace=wrap;html=1;fillColor=#B1F4F6;strokeColor=light-dark(#0d686a, #003435);" parent="WIyWlLk6GJQsqaUBKTNV-1" vertex="1">
          <mxGeometry x="670" y="605" width="290" height="120" as="geometry" />
        </mxCell>
        <mxCell id="6L3-nmI1P39nmVWJ7QpO-22" value="&lt;div&gt;- id : UUID &lt;br&gt;&lt;/div&gt;&lt;div&gt;- name : str&lt;br&gt;&lt;/div&gt;&lt;div&gt;- url : str &lt;br&gt;&lt;/div&gt;&lt;div&gt;&lt;br&gt;&lt;/div&gt;&lt;div&gt;&lt;br&gt;&lt;/div&gt;&lt;br&gt;&lt;div&gt;&lt;br&gt;&lt;/div&gt;" style="text;strokeColor=none;fillColor=none;align=left;verticalAlign=top;spacingLeft=4;spacingRight=4;overflow=hidden;rotatable=0;points=[[0,0.5],[1,0.5]];portConstraint=eastwest;whiteSpace=wrap;html=1;" parent="6L3-nmI1P39nmVWJ7QpO-21" vertex="1">
          <mxGeometry y="26" width="290" height="54" as="geometry" />
        </mxCell>
        <mxCell id="6L3-nmI1P39nmVWJ7QpO-23" value="" style="line;strokeWidth=1;fillColor=none;align=left;verticalAlign=middle;spacingTop=-1;spacingLeft=3;spacingRight=3;rotatable=0;labelPosition=right;points=[];portConstraint=eastwest;strokeColor=inherit;" parent="6L3-nmI1P39nmVWJ7QpO-21" vertex="1">
          <mxGeometry y="80" width="290" height="8" as="geometry" />
        </mxCell>
        <mxCell id="6L3-nmI1P39nmVWJ7QpO-24" value="+list_courses() : Course[]" style="text;strokeColor=none;fillColor=none;align=left;verticalAlign=top;spacingLeft=4;spacingRight=4;overflow=hidden;rotatable=0;points=[[0,0.5],[1,0.5]];portConstraint=eastwest;whiteSpace=wrap;html=1;" parent="6L3-nmI1P39nmVWJ7QpO-21" vertex="1">
          <mxGeometry y="88" width="290" height="32" as="geometry" />
        </mxCell>
        <mxCell id="6L3-nmI1P39nmVWJ7QpO-25" value="Discount" style="swimlane;fontStyle=1;align=center;verticalAlign=top;childLayout=stackLayout;horizontal=1;startSize=26;horizontalStack=0;resizeParent=1;resizeParentMax=0;resizeLast=0;collapsible=1;marginBottom=0;whiteSpace=wrap;html=1;fillColor=#B1F4F6;strokeColor=light-dark(#0d686a, #003435);" parent="WIyWlLk6GJQsqaUBKTNV-1" vertex="1">
          <mxGeometry x="320" y="340" width="310" height="150" as="geometry" />
        </mxCell>
        <mxCell id="6L3-nmI1P39nmVWJ7QpO-26" value="&lt;div&gt;- id : UUID &lt;br&gt;&lt;/div&gt;&lt;div&gt;- course_id : UUID ( FK -&amp;gt; Course )&lt;br&gt;&lt;/div&gt;&lt;div&gt;- type : str (Percentage, Students, Scholarship, Sale )&lt;/div&gt;&lt;div&gt;- valor : float&lt;/div&gt;&lt;div&gt;- expiracy_date : Date &lt;br&gt;&lt;/div&gt;&lt;div&gt;&lt;br&gt;&lt;/div&gt;&lt;div&gt;&lt;br&gt;&lt;/div&gt;&lt;br&gt;&lt;div&gt;&lt;br&gt;&lt;/div&gt;" style="text;strokeColor=none;fillColor=none;align=left;verticalAlign=top;spacingLeft=4;spacingRight=4;overflow=hidden;rotatable=0;points=[[0,0.5],[1,0.5]];portConstraint=eastwest;whiteSpace=wrap;html=1;" parent="6L3-nmI1P39nmVWJ7QpO-25" vertex="1">
          <mxGeometry y="26" width="310" height="84" as="geometry" />
        </mxCell>
        <mxCell id="6L3-nmI1P39nmVWJ7QpO-27" value="" style="line;strokeWidth=1;fillColor=none;align=left;verticalAlign=middle;spacingTop=-1;spacingLeft=3;spacingRight=3;rotatable=0;labelPosition=right;points=[];portConstraint=eastwest;strokeColor=inherit;" parent="6L3-nmI1P39nmVWJ7QpO-25" vertex="1">
          <mxGeometry y="110" width="310" height="8" as="geometry" />
        </mxCell>
        <mxCell id="6L3-nmI1P39nmVWJ7QpO-28" value="+ apply_discount() : void" style="text;strokeColor=none;fillColor=none;align=left;verticalAlign=top;spacingLeft=4;spacingRight=4;overflow=hidden;rotatable=0;points=[[0,0.5],[1,0.5]];portConstraint=eastwest;whiteSpace=wrap;html=1;" parent="6L3-nmI1P39nmVWJ7QpO-25" vertex="1">
          <mxGeometry y="118" width="310" height="32" as="geometry" />
        </mxCell>
        <mxCell id="ELeCMsGCXbmOcIvzsZIU-0" value="Favorites" style="swimlane;fontStyle=1;align=center;verticalAlign=top;childLayout=stackLayout;horizontal=1;startSize=26;horizontalStack=0;resizeParent=1;resizeParentMax=0;resizeLast=0;collapsible=1;marginBottom=0;whiteSpace=wrap;html=1;fillColor=#B1F4F6;strokeColor=light-dark(#0d686a, #003435);" vertex="1" parent="WIyWlLk6GJQsqaUBKTNV-1">
          <mxGeometry x="-20" y="605" width="310" height="120" as="geometry" />
        </mxCell>
        <mxCell id="ELeCMsGCXbmOcIvzsZIU-1" value="&lt;div&gt;- id : UUID &lt;br&gt;&lt;/div&gt;&lt;div&gt;- user_id : UUID ( FK -&amp;gt; User )&lt;/div&gt;&lt;div&gt;- course_id : UUID ( FK -&amp;gt; Course )&lt;/div&gt;&lt;div&gt;&lt;br&gt;&lt;/div&gt;&lt;div&gt;&lt;br&gt;&lt;/div&gt;&lt;div&gt;&lt;br&gt;&lt;/div&gt;&lt;div&gt;&lt;br&gt;&lt;/div&gt;&lt;br&gt;&lt;div&gt;&lt;br&gt;&lt;/div&gt;&lt;div&gt;&lt;br&gt;&lt;/div&gt;&lt;div&gt;&lt;br&gt;&lt;/div&gt;" style="text;strokeColor=none;fillColor=none;align=left;verticalAlign=top;spacingLeft=4;spacingRight=4;overflow=hidden;rotatable=0;points=[[0,0.5],[1,0.5]];portConstraint=eastwest;whiteSpace=wrap;html=1;" vertex="1" parent="ELeCMsGCXbmOcIvzsZIU-0">
          <mxGeometry y="26" width="310" height="54" as="geometry" />
        </mxCell>
        <mxCell id="ELeCMsGCXbmOcIvzsZIU-2" value="" style="line;strokeWidth=1;fillColor=none;align=left;verticalAlign=middle;spacingTop=-1;spacingLeft=3;spacingRight=3;rotatable=0;labelPosition=right;points=[];portConstraint=eastwest;strokeColor=inherit;" vertex="1" parent="ELeCMsGCXbmOcIvzsZIU-0">
          <mxGeometry y="80" width="310" height="8" as="geometry" />
        </mxCell>
        <mxCell id="ELeCMsGCXbmOcIvzsZIU-3" value="+ add_favorite() : void" style="text;strokeColor=none;fillColor=none;align=left;verticalAlign=top;spacingLeft=4;spacingRight=4;overflow=hidden;rotatable=0;points=[[0,0.5],[1,0.5]];portConstraint=eastwest;whiteSpace=wrap;html=1;" vertex="1" parent="ELeCMsGCXbmOcIvzsZIU-0">
          <mxGeometry y="88" width="310" height="32" as="geometry" />
        </mxCell>
        <mxCell id="ELeCMsGCXbmOcIvzsZIU-4" value="SearchFilter" style="swimlane;fontStyle=1;align=center;verticalAlign=top;childLayout=stackLayout;horizontal=1;startSize=26;horizontalStack=0;resizeParent=1;resizeParentMax=0;resizeLast=0;collapsible=1;marginBottom=0;whiteSpace=wrap;html=1;fillColor=#B1F4F6;strokeColor=light-dark(#0d686a, #003435);" vertex="1" parent="WIyWlLk6GJQsqaUBKTNV-1">
          <mxGeometry y="860" width="290" height="150" as="geometry" />
        </mxCell>
        <mxCell id="ELeCMsGCXbmOcIvzsZIU-5" value="&lt;div&gt;- category: str&lt;/div&gt;&lt;div&gt;- max_price : float&lt;/div&gt;&lt;div&gt;- is_free : bool&lt;/div&gt;&lt;div&gt;- min_rating : float&lt;br&gt;&lt;/div&gt;" style="text;strokeColor=none;fillColor=none;align=left;verticalAlign=top;spacingLeft=4;spacingRight=4;overflow=hidden;rotatable=0;points=[[0,0.5],[1,0.5]];portConstraint=eastwest;whiteSpace=wrap;html=1;" vertex="1" parent="ELeCMsGCXbmOcIvzsZIU-4">
          <mxGeometry y="26" width="290" height="74" as="geometry" />
        </mxCell>
        <mxCell id="ELeCMsGCXbmOcIvzsZIU-6" value="" style="line;strokeWidth=1;fillColor=none;align=left;verticalAlign=middle;spacingTop=-1;spacingLeft=3;spacingRight=3;rotatable=0;labelPosition=right;points=[];portConstraint=eastwest;strokeColor=inherit;" vertex="1" parent="ELeCMsGCXbmOcIvzsZIU-4">
          <mxGeometry y="100" width="290" height="8" as="geometry" />
        </mxCell>
        <mxCell id="ELeCMsGCXbmOcIvzsZIU-7" value="+ apply_filter() : Course[]" style="text;strokeColor=none;fillColor=none;align=left;verticalAlign=top;spacingLeft=4;spacingRight=4;overflow=hidden;rotatable=0;points=[[0,0.5],[1,0.5]];portConstraint=eastwest;whiteSpace=wrap;html=1;" vertex="1" parent="ELeCMsGCXbmOcIvzsZIU-4">
          <mxGeometry y="108" width="290" height="42" as="geometry" />
        </mxCell>
        <mxCell id="ELeCMsGCXbmOcIvzsZIU-9" style="edgeStyle=none;curved=1;rounded=0;orthogonalLoop=1;jettySize=auto;html=1;exitX=0.75;exitY=0;exitDx=0;exitDy=0;fontSize=12;startSize=8;endSize=8;" edge="1" parent="WIyWlLk6GJQsqaUBKTNV-1" source="ELeCMsGCXbmOcIvzsZIU-0" target="ELeCMsGCXbmOcIvzsZIU-0">
          <mxGeometry relative="1" as="geometry" />
        </mxCell>
        <mxCell id="ELeCMsGCXbmOcIvzsZIU-11" value="" style="endArrow=classic;html=1;rounded=0;fontSize=12;startSize=8;endSize=8;curved=1;exitX=0.5;exitY=1;exitDx=0;exitDy=0;entryX=0.533;entryY=0.007;entryDx=0;entryDy=0;entryPerimeter=0;" edge="1" parent="WIyWlLk6GJQsqaUBKTNV-1" source="6L3-nmI1P39nmVWJ7QpO-25" target="6L3-nmI1P39nmVWJ7QpO-8">
          <mxGeometry width="50" height="50" relative="1" as="geometry">
            <mxPoint x="460" y="540" as="sourcePoint" />
            <mxPoint x="510" y="490" as="targetPoint" />
          </mxGeometry>
        </mxCell>
        <mxCell id="ELeCMsGCXbmOcIvzsZIU-12" value="" style="endArrow=classic;html=1;rounded=0;fontSize=12;startSize=8;endSize=8;curved=1;entryX=0;entryY=0.5;entryDx=0;entryDy=0;exitX=1.003;exitY=0.555;exitDx=0;exitDy=0;exitPerimeter=0;" edge="1" parent="WIyWlLk6GJQsqaUBKTNV-1" source="6L3-nmI1P39nmVWJ7QpO-9" target="6L3-nmI1P39nmVWJ7QpO-22">
          <mxGeometry width="50" height="50" relative="1" as="geometry">
            <mxPoint x="440" y="720" as="sourcePoint" />
            <mxPoint x="490" y="670" as="targetPoint" />
          </mxGeometry>
        </mxCell>
        <mxCell id="ELeCMsGCXbmOcIvzsZIU-13" value="" style="endArrow=classic;html=1;rounded=0;fontSize=12;startSize=8;endSize=8;curved=1;exitX=1;exitY=0.5;exitDx=0;exitDy=0;entryX=0;entryY=0.5;entryDx=0;entryDy=0;" edge="1" parent="WIyWlLk6GJQsqaUBKTNV-1" source="6L3-nmI1P39nmVWJ7QpO-14" target="6L3-nmI1P39nmVWJ7QpO-18">
          <mxGeometry width="50" height="50" relative="1" as="geometry">
            <mxPoint x="440" y="720" as="sourcePoint" />
            <mxPoint x="490" y="670" as="targetPoint" />
          </mxGeometry>
        </mxCell>
        <mxCell id="ELeCMsGCXbmOcIvzsZIU-14" value="" style="endArrow=classic;html=1;rounded=0;fontSize=12;startSize=8;endSize=8;curved=1;exitX=0.5;exitY=0;exitDx=0;exitDy=0;entryX=0.498;entryY=0.946;entryDx=0;entryDy=0;entryPerimeter=0;" edge="1" parent="WIyWlLk6GJQsqaUBKTNV-1" source="6L3-nmI1P39nmVWJ7QpO-13" target="6L3-nmI1P39nmVWJ7QpO-11">
          <mxGeometry width="50" height="50" relative="1" as="geometry">
            <mxPoint x="440" y="720" as="sourcePoint" />
            <mxPoint x="490" y="670" as="targetPoint" />
          </mxGeometry>
        </mxCell>
        <mxCell id="ELeCMsGCXbmOcIvzsZIU-15" value="" style="endArrow=classic;html=1;rounded=0;fontSize=12;startSize=8;endSize=8;curved=1;exitX=0.99;exitY=0.866;exitDx=0;exitDy=0;exitPerimeter=0;entryX=0.003;entryY=0.653;entryDx=0;entryDy=0;entryPerimeter=0;" edge="1" parent="WIyWlLk6GJQsqaUBKTNV-1" source="ELeCMsGCXbmOcIvzsZIU-1" target="6L3-nmI1P39nmVWJ7QpO-9">
          <mxGeometry width="50" height="50" relative="1" as="geometry">
            <mxPoint x="440" y="720" as="sourcePoint" />
            <mxPoint x="490" y="670" as="targetPoint" />
          </mxGeometry>
        </mxCell>
        <mxCell id="ELeCMsGCXbmOcIvzsZIU-16" value="" style="endArrow=none;dashed=1;html=1;dashPattern=1 3;strokeWidth=2;rounded=0;fontSize=12;startSize=8;endSize=8;curved=1;exitX=0.408;exitY=-0.023;exitDx=0;exitDy=0;exitPerimeter=0;" edge="1" parent="WIyWlLk6GJQsqaUBKTNV-1" source="ELeCMsGCXbmOcIvzsZIU-4">
          <mxGeometry width="50" height="50" relative="1" as="geometry">
            <mxPoint x="440" y="720" as="sourcePoint" />
            <mxPoint x="118" y="790" as="targetPoint" />
          </mxGeometry>
        </mxCell>
        <mxCell id="ELeCMsGCXbmOcIvzsZIU-17" value="" style="endArrow=none;dashed=1;html=1;dashPattern=1 3;strokeWidth=2;rounded=0;fontSize=12;startSize=8;endSize=8;curved=1;entryX=-0.002;entryY=0.202;entryDx=0;entryDy=0;entryPerimeter=0;" edge="1" parent="WIyWlLk6GJQsqaUBKTNV-1" target="6L3-nmI1P39nmVWJ7QpO-11">
          <mxGeometry width="50" height="50" relative="1" as="geometry">
            <mxPoint x="120" y="790" as="sourcePoint" />
            <mxPoint x="490" y="670" as="targetPoint" />
          </mxGeometry>
        </mxCell>
      </root>
    </mxGraphModel>
  </diagram>
</mxfile>
